<?xml version="1.0" encoding="utf-8"?>
<!-- Generator: Adobe Illustrator 24.1.0, SVG Export Plug-In . SVG Version: 6.00 Build 0)  -->
<svg version="1.1" id="Layer_1" xmlns="http://www.w3.org/2000/svg" xmlns:xlink="http://www.w3.org/1999/xlink" x="0px" y="0px"
	 viewBox="0 0 259.6 37.6" style="enable-background:new 0 0 259.6 37.6;" xml:space="preserve">
<style type="text/css">
	.st0{fill:none;}
	.st1{stroke:#000000;stroke-width:0.1;stroke-miterlimit:10;}
	.st2{stroke:#000000;stroke-width:5.000000e-02;}
	.st3{stroke:#000000;stroke-width:3.000000e-02;stroke-miterlimit:10;}
</style>
<path class="st0" d="M75.5,22.7c0,6.2,5.6,11.1,12.7,11.1c7.1,0,12.7-4.9,12.7-11.1c0-5.4-4.3-9.8-10.1-10.9h-5.3
	C79.7,12.9,75.5,17.3,75.5,22.7z"/>
<path d="M94,10.8c1.5,0.5,3.1,0.7,4.6,0.8h0.3V9.9H77.4v1.6h0.3c1.6,0,3.1-0.3,4.6-0.7C86.1,9.7,90.2,9.7,94,10.8z"/>
<path d="M96.1,11.7h-5.2v0.1c5.8,1.1,10,5.5,10,10.8c0,6.2-5.6,11-12.7,11s-12.6-4.8-12.6-11c0-5.3,4.1-9.7,10-10.8v-0.1h-5.2
	c-4.1,2.1-6.8,6.3-6.7,10.9c0,7.4,6.1,12.8,14.5,12.8s14.5-5.4,14.5-12.8C102.7,18.1,100.2,13.8,96.1,11.7z"/>
<path class="st1" d="M88.1,11.5c0.9,0,1.8,0.1,2.7,0.2H96c-4.9-2.5-10.8-2.5-15.7,0h5.2C86.4,11.6,87.3,11.5,88.1,11.5z"/>
<path class="st2" d="M145.7,21.7c0,8.1-6.8,13.7-15.7,13.7s-15.7-5.6-15.7-13.7S121.1,8,130,8S145.7,13.6,145.7,21.7z M116.2,21.7
	c0,6.7,6.1,12,13.7,12c7.7,0,13.7-5.3,13.7-12s-6.1-12-13.7-12C122.3,9.7,116.2,15,116.2,21.7z"/>
<path class="st3" d="M171.8,15.5V7.2h-1.9v8.2c0,9.3-8.4,14.8-15.6,16.9v1.9c6.6-2,14.2-6.2,16.6-13.7c2.4,7.5,10,11.6,16.6,13.7
	v-1.9C180.1,30.2,171.8,24.8,171.8,15.5z"/>
<polygon points="91.6,2.5 86,8.3 84.8,8.3 88.6,2.5 "/>
</svg>
